<?xml version="1.0" encoding="UTF-8"?>
<!DOCTYPE svg PUBLIC "-//W3C//DTD SVG 1.1//EN" "http://www.w3.org/Graphics/SVG/1.1/DTD/svg11.dtd">
<!-- Creator: CorelDRAW 2021 (64-Bit) -->
<svg xmlns="http://www.w3.org/2000/svg" xml:space="preserve" width="1236px" height="594px" version="1.1" style="shape-rendering:geometricPrecision; text-rendering:geometricPrecision; image-rendering:optimizeQuality; fill-rule:evenodd; clip-rule:evenodd"
viewBox="0 0 620.08 297.72"
 xmlns:xlink="http://www.w3.org/1999/xlink"
 xmlns:xodm="http://www.corel.com/coreldraw/odm/2003">
 <defs>
  <style type="text/css">
   <![CDATA[
    .fil0 {fill:#063554}
   ]]>
  </style>
 </defs>
 <g id="Layer_x0020_1">
  <metadata id="CorelCorpID_0Corel-Layer"/>
  <path class="fil0" d="M129.84 32.49c6.74,0.92 9.34,-0.13 19.46,2.02 5.79,1.24 11.28,2.82 16.49,4.93 8.88,3.59 13.44,6.37 20.75,11.39 10.6,7.26 19.15,17.04 26.03,27.84 19.7,30.9 18.78,71.15 1,100.89 -3.39,5.66 -9.4,13.67 -13.88,18.25 -26.61,27.26 -67.63,36.94 -104.37,23.12 -9.01,-3.39 -20.47,-9.71 -27.28,-15.9 -0.59,-0.53 -0.83,-0.63 -1.47,-1.14 -3.14,-2.46 -6.9,-6.41 -9.46,-9.36 -27.3,-31.64 -33.19,-74.61 -11.58,-113.22 3.41,-6.08 14.57,-21.15 19.31,-23.63 0.46,2.99 0.09,67.56 0.08,72.24 -0.03,10.66 2.77,21.09 7,29.36 3.09,6.05 8.72,13.86 13.69,18.12 0.84,0.71 1.48,1.43 2.37,2.17 22.35,18.5 56.67,21.22 80.78,2.25l4.95 -4.14c3.07,-2.59 11.1,-11.8 12.16,-15.37 -9.48,0.47 -21.14,0.3 -30.71,0.07 -9.17,-0.22 -21.78,0.87 -30.43,-0.42 -16.79,-2.51 -27.38,-16.72 -27.34,-34.31 0.04,-20.56 0,-41.12 0,-61.68 0,-20.34 0.54,-41.42 -0.02,-61.67 -6.05,0.47 -23.03,7.99 -28.16,10.78 -10.35,5.62 -14.54,8.9 -23.21,15.74 -1.01,0.8 -1.53,1.49 -2.57,2.29 -1.14,0.87 -1.48,1.43 -2.5,2.36l-13.95 15.28c-19.08,24.6 -29.16,56.29 -26.58,89.56 2.16,27.92 13.42,53.39 29.77,72.72 21.27,25.15 50.96,42.36 85.55,45.96 35.46,3.7 70.57,-7.12 96.37,-28.65 7.62,-6.37 6.84,-6.45 12.53,-11.82 1.1,-1.04 1.68,-1.96 2.56,-2.5 0.32,4.16 0.04,22.17 0.04,27.83 0,14.49 -2,25.83 5.03,37.16 5.13,8.28 16.7,15.87 27.28,14.94 0.52,-2.27 0.14,-151.8 0.14,-159.54 0,-17.61 -1.17,-31.09 -6.38,-46.84 -4.67,-14.14 -10.79,-25.05 -17.95,-35.28 -3.54,-5.06 -13.92,-17.25 -18.88,-21.05l-7.26 -6.05c-10.09,-7.53 -20.14,-13.72 -34.21,-19.01 -6.67,-2.51 -13.46,-4.41 -20.8,-5.82 -5.47,-1.06 -18.88,-2.97 -24.24,-2.17l-0.11 32.3zm437.79 228.74c-5.09,0 -10.66,-0.75 -16.7,-2.26 -6.04,-1.51 -11.64,-3.66 -16.81,-6.44 -5.16,-2.78 -9.46,-6.2 -12.87,-10.25 -3.42,-4.06 -5.13,-8.63 -5.13,-13.72 0,-1.9 0.56,-3.25 1.67,-4.05 1.11,-0.79 2.07,-1.19 2.86,-1.19 1.75,0 3.06,0.52 3.93,1.55 0.88,1.03 1.32,2.18 1.32,3.46 0,2.38 1.07,4.92 3.21,7.63 2.15,2.7 5.09,5.2 8.83,7.51 3.73,2.3 8.15,4.25 13.23,5.84 5.09,1.59 10.57,2.38 16.46,2.38 10.65,0.16 18.83,-0.95 24.56,-3.33 5.72,-2.39 9.93,-5.01 12.63,-7.87 2.71,-2.86 4.29,-5.53 4.77,-7.99 0.48,-2.46 0.72,-3.78 0.72,-3.94 0,-6.83 -3.74,-12.12 -11.21,-15.85 -7.47,-3.74 -17.96,-6 -31.47,-6.8 -10.34,-0.48 -18.45,-1.83 -24.33,-4.05 -5.88,-2.23 -10.37,-4.85 -13.47,-7.87 -3.1,-3.02 -5.05,-6.12 -5.84,-9.3 -0.8,-3.18 -1.19,-6.12 -1.19,-8.82 0,-3.5 0.83,-7.04 2.5,-10.61 1.67,-3.58 4.29,-6.8 7.87,-9.66 3.57,-2.86 8.26,-5.21 14.07,-7.04 5.8,-1.82 12.76,-2.74 20.86,-2.74 6.2,0 12.2,0.72 18.01,2.15 5.8,1.43 10.92,3.45 15.37,6.08 4.46,2.62 8.07,5.76 10.86,9.42 2.78,3.65 4.17,7.79 4.17,12.4 0,1.27 -0.24,2.22 -0.72,2.86 -0.48,0.63 -1.03,1.07 -1.67,1.31 -0.63,0.24 -1.23,0.4 -1.78,0.48 -0.56,0.08 -0.84,0.12 -0.84,0.12 -2.23,0 -3.58,-0.72 -4.05,-2.15 -0.48,-1.43 -0.72,-2.3 -0.72,-2.62 0,-2.39 -0.95,-4.81 -2.86,-7.28 -1.91,-2.46 -4.57,-4.65 -7.99,-6.55 -3.42,-1.91 -7.43,-3.5 -12.04,-4.77 -4.61,-1.27 -9.62,-1.91 -15.02,-1.91 -7.63,0 -13.79,0.8 -18.48,2.38 -4.69,1.6 -8.35,3.5 -10.97,5.73 -2.63,2.22 -4.41,4.49 -5.37,6.79 -0.95,2.31 -1.43,4.18 -1.43,5.61 0,2.54 0.44,4.92 1.32,7.15 0.87,2.23 2.58,4.21 5.12,5.96 2.54,1.75 6.12,3.26 10.73,4.53 4.61,1.27 10.57,2.15 17.89,2.62 6.51,0.48 12.91,1.32 19.19,2.51 6.28,1.19 11.88,2.98 16.81,5.36 4.93,2.39 8.9,5.57 11.92,9.54 3.02,3.98 4.53,8.98 4.53,15.02 0,5.89 -1.51,10.89 -4.53,15.03 -3.02,4.13 -6.95,7.51 -11.8,10.13 -4.85,2.62 -10.41,4.53 -16.69,5.72 -6.28,1.2 -12.76,1.79 -19.43,1.79zm-165.73 -84.89c1.43,-3.97 3.78,-7.78 7.04,-11.44 3.25,-3.66 7.15,-6.92 11.68,-9.78 4.53,-2.86 9.5,-5.13 14.9,-6.79 5.41,-1.67 11.05,-2.51 16.93,-2.51 7.95,0 15.3,1.51 22.06,4.53 6.76,3.02 12.6,7.16 17.53,12.4 4.92,5.25 8.78,11.37 11.56,18.36 2.78,7 4.17,14.47 4.17,22.42 0,7.95 -1.39,15.42 -4.17,22.41 -2.78,7 -6.64,13.12 -11.56,18.36 -4.93,5.25 -10.77,9.38 -17.53,12.4 -6.76,3.02 -14.11,4.53 -22.06,4.53 -6.51,0 -12.59,-1.03 -18.24,-3.1 -5.64,-2.06 -10.69,-4.65 -15.14,-7.75 -4.45,-3.1 -8.15,-6.39 -11.09,-9.89 -2.94,-3.5 -4.97,-6.76 -6.08,-9.78l0 61.76 0 0.48c0,1.27 -0.48,2.38 -1.43,3.33 -0.95,0.96 -2.07,1.44 -3.34,1.44 -1.27,0 -2.38,-0.48 -3.34,-1.44 -0.95,-0.95 -1.43,-2.06 -1.43,-3.33l0 -144.27c0,-1.74 0.88,-2.62 2.63,-2.62 2.38,0 4.13,1.35 5.24,4.05 1.12,2.71 1.67,7.08 1.67,13.12l0 13.11zm95.62 27.19c0,-6.68 -1.07,-13 -3.22,-18.96 -2.15,-5.96 -5.21,-11.17 -9.18,-15.62 -3.97,-4.45 -8.74,-7.95 -14.31,-10.49 -5.56,-2.54 -11.68,-3.81 -18.36,-3.81 -6.67,0 -13.07,1.27 -19.19,3.81 -6.12,2.54 -11.45,6.04 -15.98,10.49 -4.53,4.45 -8.15,9.66 -10.85,15.62 -2.7,5.96 -4.05,12.28 -4.05,18.96 0,6.52 1.39,12.75 4.17,18.72 2.78,5.96 6.48,11.16 11.09,15.61 4.61,4.46 9.94,7.99 15.97,10.62 6.05,2.62 12.33,3.93 18.84,3.93 6.68,0 12.8,-1.27 18.36,-3.82 5.57,-2.54 10.34,-6.04 14.31,-10.49 3.97,-4.45 7.03,-9.65 9.18,-15.62 2.15,-5.96 3.22,-12.28 3.22,-18.95zm-213.89 -27.19c1.43,-3.97 3.78,-7.78 7.03,-11.44 3.26,-3.66 7.16,-6.92 11.69,-9.78 4.53,-2.86 9.5,-5.13 14.9,-6.79 5.41,-1.67 11.05,-2.51 16.93,-2.51 7.95,0 15.3,1.51 22.06,4.53 6.75,3.02 12.6,7.16 17.53,12.4 4.92,5.25 8.78,11.37 11.56,18.36 2.78,7 4.17,14.47 4.17,22.42 0,7.95 -1.39,15.42 -4.17,22.41 -2.78,7 -6.64,13.12 -11.56,18.36 -4.93,5.25 -10.78,9.38 -17.53,12.4 -6.76,3.02 -14.11,4.53 -22.06,4.53 -6.52,0 -12.6,-1.03 -18.24,-3.1 -5.64,-2.06 -10.69,-4.65 -15.14,-7.75 -4.45,-3.1 -8.15,-6.39 -11.09,-9.89 -2.94,-3.5 -4.97,-6.76 -6.08,-9.78l0 61.76 0 0.48c0,1.27 -0.48,2.38 -1.43,3.33 -0.95,0.96 -2.07,1.44 -3.34,1.44 -1.27,0 -2.38,-0.48 -3.34,-1.44 -0.95,-0.95 -1.43,-2.06 -1.43,-3.33l0 -144.27c0,-1.74 0.88,-2.62 2.62,-2.62 2.39,0 4.14,1.35 5.25,4.05 1.11,2.71 1.67,7.08 1.67,13.12l0 13.11zm95.62 27.19c0,-6.68 -1.07,-13 -3.22,-18.96 -2.15,-5.96 -5.21,-11.17 -9.18,-15.62 -3.97,-4.45 -8.74,-7.95 -14.31,-10.49 -5.56,-2.54 -11.68,-3.81 -18.36,-3.81 -6.67,0 -13.07,1.27 -19.19,3.81 -6.12,2.54 -11.45,6.04 -15.98,10.49 -4.53,4.45 -8.15,9.66 -10.85,15.62 -2.7,5.96 -4.05,12.28 -4.05,18.96 0,6.52 1.39,12.75 4.17,18.72 2.78,5.96 6.48,11.16 11.09,15.61 4.61,4.46 9.93,7.99 15.97,10.62 6.05,2.62 12.32,3.93 18.84,3.93 6.68,0 12.8,-1.27 18.36,-3.82 5.57,-2.54 10.34,-6.04 14.31,-10.49 3.97,-4.45 7.03,-9.65 9.18,-15.62 2.15,-5.96 3.22,-12.28 3.22,-18.95z"/>
  <rect class="fil0" x="124.91" y="118.9" width="64.6" height="12.2" rx="32.3" ry="6.1"/>
 </g>
</svg>
