<?xml version="1.0" encoding="UTF-8"?>
<!DOCTYPE svg PUBLIC "-//W3C//DTD SVG 1.1//EN" "http://www.w3.org/Graphics/SVG/1.1/DTD/svg11.dtd">
<!-- Creator: CorelDRAW 2021 (64-Bit) -->
<svg xmlns="http://www.w3.org/2000/svg" xml:space="preserve" width="1338px" height="643px" version="1.1" style="shape-rendering:geometricPrecision; text-rendering:geometricPrecision; image-rendering:optimizeQuality; fill-rule:evenodd; clip-rule:evenodd"
viewBox="0 0 726.62 348.87"
 xmlns:xlink="http://www.w3.org/1999/xlink"
 xmlns:xodm="http://www.corel.com/coreldraw/odm/2003">
 <defs>
  <style type="text/css">
   <![CDATA[
    .fil1 {fill:#0488A3}
    .fil0 {fill:url(#id0)}
   ]]>
  </style>
  <linearGradient id="id0" gradientUnits="userSpaceOnUse" x1="0" y1="174.43" x2="726.62" y2="174.43">
   <stop offset="0" style="stop-opacity:1; stop-color:#008AED"/>
   <stop offset="0.6" style="stop-opacity:1; stop-color:#06887A"/>
   <stop offset="1" style="stop-opacity:1; stop-color:#0D8507"/>
  </linearGradient>
 </defs>
 <g id="Layer_x0020_1">
  <metadata id="CorelCorpID_0Corel-Layer"/>
  <path class="fil0" d="M152.15 38.07c7.9,1.08 10.94,-0.15 22.8,2.37 6.79,1.45 13.22,3.3 19.33,5.77 10.4,4.21 15.75,7.48 24.31,13.35 12.43,8.51 22.44,19.97 30.51,32.63 23.07,36.21 22,83.37 1.16,118.23 -3.97,6.63 -11.01,16 -16.26,21.38 -31.19,31.94 -79.25,43.28 -122.31,27.09 -10.55,-3.97 -23.98,-11.38 -31.96,-18.63 -0.69,-0.63 -0.97,-0.74 -1.72,-1.33 -3.68,-2.89 -8.09,-7.52 -11.08,-10.98 -32,-37.07 -38.9,-87.43 -13.57,-132.67 3.99,-7.12 17.07,-24.78 22.62,-27.69 0.54,3.51 0.11,79.16 0.09,84.65 -0.04,12.5 3.25,24.71 8.2,34.41 3.63,7.09 10.22,16.23 16.05,21.23 0.98,0.83 1.73,1.67 2.78,2.54 26.18,21.69 66.4,24.87 94.66,2.64l5.8 -4.85c3.59,-3.04 13,-13.83 14.25,-18.01 -11.11,0.55 -24.77,0.35 -35.99,0.08 -10.74,-0.25 -25.53,1.02 -35.65,-0.49 -19.68,-2.95 -32.1,-19.6 -32.05,-40.21 0.05,-24.09 0,-48.18 0,-72.27 0,-23.84 0.63,-48.54 -0.02,-72.27 -7.09,0.55 -26.99,9.37 -33,12.63 -12.13,6.58 -17.04,10.43 -27.19,18.44 -1.19,0.95 -1.8,1.76 -3.02,2.69 -1.34,1.02 -1.73,1.67 -2.93,2.77l-16.34 17.9c-22.36,28.82 -34.17,65.96 -31.15,104.95 2.53,32.71 15.73,62.57 34.89,85.21 24.92,29.47 59.71,49.64 100.25,53.86 41.54,4.33 82.68,-8.34 112.92,-33.58 8.93,-7.46 8.02,-7.55 14.68,-13.84 1.3,-1.22 1.97,-2.3 3,-2.94 0.38,4.88 0.05,25.98 0.05,32.61 0,16.98 -2.34,30.27 5.89,43.56 6.02,9.69 19.58,18.58 31.97,17.5 0.61,-2.66 0.17,-177.88 0.17,-186.95 -0.01,-20.64 -1.38,-36.44 -7.48,-54.89 -5.47,-16.56 -12.65,-29.35 -21.03,-41.35 -4.15,-5.93 -16.32,-20.2 -22.13,-24.65l-8.51 -7.1c-11.82,-8.82 -23.59,-16.08 -40.09,-22.28 -7.81,-2.93 -15.77,-5.16 -24.37,-6.82 -6.41,-1.24 -22.12,-3.47 -28.4,-2.54l-0.13 37.85zm513 268.05c-5.96,0 -12.48,-0.89 -19.56,-2.66 -7.08,-1.77 -13.64,-4.28 -19.7,-7.54 -6.05,-3.26 -11.08,-7.27 -15.09,-12.02 -4,-4.75 -6,-10.1 -6,-16.07 0,-2.23 0.65,-3.82 1.95,-4.75 1.31,-0.93 2.42,-1.39 3.36,-1.39 2.05,0 3.58,0.6 4.61,1.81 1.02,1.22 1.53,2.56 1.53,4.06 0,2.79 1.26,5.77 3.77,8.94 2.52,3.16 5.96,6.1 10.34,8.8 4.38,2.7 9.55,4.98 15.51,6.84 5.96,1.87 12.39,2.8 19.28,2.8 12.48,0.18 22.07,-1.12 28.78,-3.91 6.71,-2.8 11.64,-5.87 14.81,-9.22 3.17,-3.36 5.03,-6.48 5.59,-9.36 0.56,-2.89 0.84,-4.43 0.84,-4.62 0,-8 -4.38,-14.2 -13.14,-18.58 -8.75,-4.37 -21.04,-7.03 -36.88,-7.96 -12.11,-0.56 -21.61,-2.14 -28.5,-4.75 -6.89,-2.61 -12.15,-5.68 -15.79,-9.22 -3.63,-3.54 -5.91,-7.17 -6.84,-10.9 -0.93,-3.73 -1.4,-7.17 -1.4,-10.34 0,-4.1 0.98,-8.24 2.93,-12.43 1.96,-4.19 5.03,-7.97 9.23,-11.32 4.19,-3.35 9.68,-6.1 16.48,-8.24 6.8,-2.14 14.95,-3.22 24.45,-3.22 7.26,0 14.3,0.84 21.1,2.52 6.8,1.68 12.8,4.05 18.02,7.13 5.22,3.07 9.45,6.75 12.71,11.03 3.26,4.29 4.89,9.13 4.89,14.53 0,1.49 -0.28,2.61 -0.84,3.36 -0.56,0.74 -1.21,1.25 -1.95,1.53 -0.75,0.28 -1.45,0.47 -2.1,0.56 -0.65,0.09 -0.97,0.14 -0.97,0.14 -2.61,0 -4.2,-0.84 -4.76,-2.51 -0.55,-1.68 -0.83,-2.7 -0.83,-3.08 0,-2.79 -1.12,-5.63 -3.36,-8.52 -2.23,-2.89 -5.35,-5.45 -9.36,-7.68 -4,-2.24 -8.71,-4.1 -14.11,-5.59 -5.4,-1.49 -11.27,-2.24 -17.6,-2.24 -8.94,0 -16.16,0.93 -21.66,2.8 -5.49,1.86 -9.78,4.1 -12.85,6.7 -3.07,2.61 -5.17,5.27 -6.29,7.97 -1.11,2.7 -1.67,4.89 -1.67,6.56 0,2.98 0.51,5.78 1.53,8.38 1.03,2.61 3.03,4.94 6.01,6.99 2.98,2.05 7.17,3.82 12.58,5.31 5.4,1.49 12.38,2.51 20.95,3.07 7.64,0.56 15.14,1.54 22.5,2.94 7.35,1.39 13.92,3.49 19.69,6.28 5.78,2.8 10.44,6.52 13.97,11.18 3.54,4.66 5.31,10.53 5.31,17.6 0,6.9 -1.77,12.76 -5.31,17.61 -3.53,4.84 -8.15,8.8 -13.83,11.87 -5.68,3.08 -12.2,5.31 -19.56,6.71 -7.35,1.4 -14.95,2.1 -22.77,2.1zm-194.2 -99.48c1.68,-4.66 4.43,-9.13 8.25,-13.41 3.82,-4.28 8.38,-8.1 13.69,-11.46 5.31,-3.35 11.13,-6.01 17.46,-7.96 6.33,-1.96 12.95,-2.94 19.84,-2.94 9.32,0 17.93,1.78 25.85,5.31 7.91,3.54 14.76,8.39 20.54,14.53 5.77,6.15 10.29,13.32 13.55,21.52 3.26,8.2 4.89,16.95 4.89,26.27 0,9.31 -1.63,18.06 -4.89,26.26 -3.26,8.2 -7.78,15.37 -13.55,21.52 -5.78,6.14 -12.63,10.99 -20.54,14.53 -7.92,3.54 -16.53,5.31 -25.85,5.31 -7.64,0 -14.76,-1.22 -21.38,-3.64 -6.61,-2.42 -12.52,-5.45 -17.74,-9.08 -5.21,-3.63 -9.54,-7.49 -12.99,-11.59 -3.45,-4.1 -5.82,-7.92 -7.13,-11.46l0 72.37 0 0.56c0,1.49 -0.55,2.79 -1.67,3.91 -1.12,1.12 -2.42,1.68 -3.92,1.68 -1.48,0 -2.79,-0.56 -3.91,-1.68 -1.12,-1.12 -1.67,-2.42 -1.67,-3.91l0 -169.05c0,-2.05 1.02,-3.08 3.07,-3.08 2.8,0 4.84,1.59 6.15,4.75 1.3,3.17 1.95,8.3 1.95,15.37l0 15.37zm112.05 31.86c0,-7.83 -1.26,-15.23 -3.77,-22.22 -2.52,-6.98 -6.1,-13.08 -10.76,-18.3 -4.65,-5.22 -10.24,-9.31 -16.76,-12.3 -6.52,-2.98 -13.7,-4.46 -21.52,-4.46 -7.82,0 -15.32,1.48 -22.49,4.46 -7.17,2.99 -13.42,7.08 -18.72,12.3 -5.31,5.22 -9.55,11.32 -12.72,18.3 -3.16,6.99 -4.75,14.39 -4.75,22.22 0,7.63 1.63,14.94 4.89,21.93 3.26,6.99 7.59,13.09 12.99,18.3 5.41,5.22 11.65,9.36 18.73,12.44 7.08,3.07 14.43,4.61 22.07,4.61 7.82,0 15,-1.49 21.52,-4.47 6.52,-2.99 12.11,-7.08 16.76,-12.3 4.66,-5.21 8.24,-11.31 10.76,-18.3 2.51,-6.99 3.77,-14.39 3.77,-22.21zm-250.64 -31.86c1.68,-4.66 4.43,-9.13 8.24,-13.41 3.82,-4.28 8.39,-8.1 13.7,-11.46 5.31,-3.35 11.13,-6.01 17.46,-7.96 6.33,-1.96 12.95,-2.94 19.84,-2.94 9.31,0 17.93,1.78 25.85,5.31 7.91,3.54 14.76,8.39 20.53,14.53 5.78,6.15 10.29,13.32 13.56,21.52 3.25,8.2 4.89,16.95 4.89,26.27 0,9.31 -1.64,18.06 -4.89,26.26 -3.27,8.2 -7.78,15.37 -13.56,21.52 -5.77,6.14 -12.62,10.99 -20.53,14.53 -7.92,3.54 -16.54,5.31 -25.85,5.31 -7.64,0 -14.76,-1.22 -21.38,-3.64 -6.61,-2.42 -12.52,-5.45 -17.74,-9.08 -5.22,-3.63 -9.55,-7.49 -12.99,-11.59 -3.45,-4.1 -5.82,-7.92 -7.13,-11.46l0 72.37 0 0.56c0,1.49 -0.56,2.79 -1.68,3.91 -1.11,1.12 -2.42,1.68 -3.91,1.68 -1.49,0 -2.79,-0.56 -3.91,-1.68 -1.12,-1.12 -1.68,-2.42 -1.68,-3.91l0 -169.05c0,-2.05 1.03,-3.08 3.08,-3.08 2.79,0 4.84,1.59 6.15,4.75 1.3,3.17 1.95,8.3 1.95,15.37l0 15.37zm112.05 31.86c0,-7.83 -1.26,-15.23 -3.77,-22.22 -2.52,-6.98 -6.1,-13.08 -10.76,-18.3 -4.66,-5.22 -10.24,-9.31 -16.77,-12.3 -6.52,-2.98 -13.69,-4.46 -21.51,-4.46 -7.82,0 -15.32,1.48 -22.49,4.46 -7.18,2.99 -13.42,7.08 -18.73,12.3 -5.3,5.22 -9.54,11.32 -12.71,18.3 -3.17,6.99 -4.75,14.39 -4.75,22.22 0,7.63 1.63,14.94 4.89,21.93 3.26,6.99 7.59,13.09 12.99,18.3 5.41,5.22 11.65,9.36 18.72,12.44 7.08,3.07 14.44,4.61 22.08,4.61 7.82,0 14.99,-1.49 21.51,-4.47 6.53,-2.99 12.11,-7.08 16.77,-12.3 4.66,-5.21 8.24,-11.31 10.76,-18.3 2.51,-6.99 3.77,-14.39 3.77,-22.21z"/>
  <rect class="fil1" x="146.37" y="139.32" width="75.7" height="14.3" rx="37.85" ry="7.15"/>
 </g>
</svg>
